inDegrees=no
num_controls=7
num_derivatives=13
num_iterations=115
num_multipliers=7
num_parameters=0
num_slacks=7
num_states=26
objective=5.840243
objective_accelerations=0.862162
objective_balance=0.057087
objective_effort=0.358528
objective_height=4.469938
objective_ligament=0.092529
solver_duration=1298.929946
status=Solve_Succeeded
success=true
DataType=double
version=3
OpenSimVersion=4.4-2022-07-23-0e9fedc
endheader
time	/jointset/ground_pelvis/pelvis_tilt/value	/jointset/ground_pelvis/pelvis_tx/value	/jointset/ground_pelvis/pelvis_ty/value	/jointset/hip_l/hip_flexion_l/value	/jointset/hip_l/hip_adduction_l/value	/jointset/hip_l/hip_rotation_l/value	/jointset/back/lumbar_extension/value	/jointset/patellofemoral_l/patellar_flexion_l/value	/jointset/knee_l/knee_flexion_l/value	/jointset/knee_l/knee_adduction_l/value	/jointset/knee_l/knee_rotation_l/value	/jointset/ankle_l/ankle_angle_l/value	/jointset/subtalar_l/subtalar_angle_l/value	/jointset/ground_pelvis/pelvis_tilt/speed	/jointset/ground_pelvis/pelvis_tx/speed	/jointset/ground_pelvis/pelvis_ty/speed	/jointset/hip_l/hip_flexion_l/speed	/jointset/hip_l/hip_adduction_l/speed	/jointset/hip_l/hip_rotation_l/speed	/jointset/back/lumbar_extension/speed	/jointset/patellofemoral_l/patellar_flexion_l/speed	/jointset/knee_l/knee_flexion_l/speed	/jointset/knee_l/knee_adduction_l/speed	/jointset/knee_l/knee_rotation_l/speed	/jointset/ankle_l/ankle_angle_l/speed	/jointset/subtalar_l/subtalar_angle_l/speed	/forceset/tau_hip_flexion_l	/forceset/tau_hip_adduction_l	/forceset/tau_hip_rotation_l	/forceset/tau_knee_flexion_l	/forceset/tau_ankle_angle_l	/forceset/tau_subtalar_angle_l	/forceset/tau_lumbar_extension	lambda_cid13_p0	lambda_cid13_p1	lambda_cid13_p2	lambda_cid13_p3	lambda_cid13_p4	lambda_cid13_p5	lambda_cid14_p0	/jointset/ground_pelvis/pelvis_tilt/accel	/jointset/ground_pelvis/pelvis_tx/accel	/jointset/ground_pelvis/pelvis_ty/accel	/jointset/hip_l/hip_flexion_l/accel	/jointset/hip_l/hip_adduction_l/accel	/jointset/hip_l/hip_rotation_l/accel	/jointset/back/lumbar_extension/accel	/jointset/patellofemoral_l/patellar_flexion_l/accel	/jointset/knee_l/knee_flexion_l/accel	/jointset/knee_l/knee_adduction_l/accel	/jointset/knee_l/knee_rotation_l/accel	/jointset/ankle_l/ankle_angle_l/accel	/jointset/subtalar_l/subtalar_angle_l/accel	gamma_cid13_p0	gamma_cid13_p1	gamma_cid13_p2	gamma_cid13_p3	gamma_cid13_p4	gamma_cid13_p5	gamma_cid14_p0
0.5	-0.4576835155167798	-0.09773493663467263	0.7322010272385714	1.302505006160169	-0.4340293505826068	-0.220474205687878	-0.2573536772216507	0.7910002427820093	0.7910002427823222	-0.1340430666156946	-0.1581684944851577	0.002705127040089584	-0.08384495050459596	-1.064578931750931	-0.3436997957243519	-0.633207669563444	2.998089938271521	-0.1983077591135495	0.7325526357785921	-0.09154866782822352	1.943933249711158	1.94393324971107	0.1184890043293081	-0.09532546037399661	0.168278386543287	-0.1395573265780839	-0.2201285261142346	0.01267842205645543	-0.008972693224645665	-0.1981274486424441	0.1201158089141932	0.05333279173296465	0.2004125889390032	5.372852179430494	-26.30186394831625	6.368746352554418	-12.09627784949279	-519.3686326023146	-57.65507886206932	-25.90521630373114	1.210095177677338	0.87591834988435	-0.4807003228266883	-1.837097920074572	0.7636211104656631	-0.159321474873852	1.186156118749446	-1.24503245253594	-1.245032452535921	0.1268313999223118	0.2423251160564539	-0.3982378860317571	0.6042706601901194	-5.048373226530434e-07	-5.423742154771051e-07	2.441600384136438e-06	7.48576476958743e-08	-6.320931586718019e-07	7.562249004688254e-07	-4.720024559748602e-07
0.51	-0.4682659762122512	-0.1011277610264657	0.7258463092099451	1.332388143698474	-0.4359756600863934	-0.2131557798808655	-0.2582119190289552	0.8103745008052697	0.8103745008055036	-0.1328563552197652	-0.1591094908000565	0.004367042382536703	-0.08521228812631694	-1.051749527844763	-0.3348395630024996	-0.637601511519912	2.978139571311947	-0.1909347586319501	0.7310168011988277	-0.08018391375009976	1.930666387844515	1.930666387844443	0.1188642867909562	-0.09288163918717555	0.1640539227941783	-0.1339101530679765	-0.2273956941189444	0.01298574594402536	-0.009107390732358311	-0.2001952666062382	0.1213603225083593	0.05416674344755061	0.2057727621553093	5.496523958250429	-26.64981491001621	6.383225353915203	-12.19119061983371	-523.8314273838783	-57.16873683274497	-25.01831152469438	1.343838769092392	0.8949284406911016	-0.3986913396703832	-2.133794381760885	0.7268006844677122	-0.1684864690799011	1.099002033042007	-1.405210480535655	-1.405210480533667	-0.005442912708214205	0.2448045781716581	-0.4421366204454984	0.5447018222892843	-5.176299241145033e-07	-3.986530044306664e-07	2.635477749024856e-06	1.215694587973025e-07	-6.138659587494193e-07	8.122257951280928e-07	-4.729060919770814e-07
0.52	-0.47871524771422	-0.1044312125495699	0.7194516597202345	1.362059819907628	-0.4378477073518612	-0.2058562668235981	-0.2589590398993258	0.8296085507244256	0.829608550724719	-0.1316655549154012	-0.1600261701116828	0.005985195887274146	-0.0865232017877634	-1.037941093058406	-0.3258252219865752	-0.6411939617805441	2.95579767243791	-0.1834553114519353	0.7287700858369581	-0.06932448044403314	1.915891628905615	1.915891628905558	0.1193067859728367	-0.09046205967327987	0.1595260190012885	-0.1282725345231447	-0.2346628621237719	0.01329306983151576	-0.009242088238182154	-0.2022630845701385	0.1226048361025274	0.0550006951620448	0.2111329353715142	5.614182577200907	-26.99818212524751	6.399450460905814	-12.30442308045691	-528.4012104545749	-56.74422699619809	-24.13235389231247	1.405901353714109	0.9067400086990071	-0.3204219836595458	-2.315404302967391	0.7849104501487963	-0.3014976312950946	1.085091964337211	-1.546611866987244	-1.54661186698723	0.1402747439687887	0.2374767814710511	-0.4589258947876347	0.6023596671350655	-4.779943949157895e-07	-3.300843432447371e-07	2.503165622445288e-06	1.17042938322573e-07	-5.519333121208032e-07	8.194649825479394e-07	-4.420461399522228e-07
0.53	-0.4890218919940871	-0.1076438204341436	0.7130250986376306	1.391496650933513	-0.4396442981226455	-0.1985825368821668	-0.2596001302116159	0.8486875339707137	0.8486875339709751	-0.1304697050230779	-0.1609185339579081	0.007556736360655292	-0.08777755655077173	-1.023240438443504	-0.3166762482459255	-0.6439804018436016	2.931182894420155	-0.1758534171759813	0.7258845185396252	-0.05900242834340815	1.899660119191929	1.899660119192079	0.1198499381152601	-0.08800150415599836	0.1547398910476632	-0.1226048950140295	-0.2415008986567823	0.01308150393116263	-0.009349527815062686	-0.2047595747807988	0.1244421812844659	0.05566627535266067	0.2161122271157009	5.924841035472441	-27.31306447080473	6.41701313314077	-12.50601834878583	-532.8413836289693	-56.28004913872716	-23.24840939738985	1.524176809027087	0.9220149924459811	-0.2371809638529842	-2.592439818568064	0.7490023016160039	-0.296147166233637	0.9894348817966833	-1.698070531454878	-1.698070531424195	0.009381493729946608	0.2522372199388079	-0.4947521548962552	0.5477575576944642	-4.528244517839586e-07	-2.674565770798536e-07	2.432940438099393e-06	1.247082868504096e-07	-5.074757447008168e-07	8.424983693972796e-07	-4.209430695510022e-07
0.54	-0.4991771238690419	-0.1107643307941727	0.7065747879651544	1.420675749125804	-0.4413646352735874	-0.1913404747910876	-0.2601412653930942	0.867596872118412	0.8675968721184079	-0.1292688144008054	-0.1617859137919813	0.00907915637267343	-0.08897547662570995	-1.007658612082776	-0.3074057170776552	-0.6459438797552638	2.904251105706787	-0.1682045874882525	0.722436515751111	-0.04933345428789505	1.881962609162454	1.881962609162811	0.1203149320317942	-0.08546525731546448	0.1497019267242108	-0.1169855969091173	-0.2483389351893119	0.01286993803113493	-0.009456967395749343	-0.2072560649911286	0.1262795264665248	0.05633185554373244	0.2210915188602311	6.228198160573548	-27.62775402135439	6.435786595855443	-12.71787944026767	-537.4096671945233	-55.87145110046303	-22.36802266846035	1.582135702878346	0.9310514942232528	-0.1558295533804852	-2.778806442090452	0.7942975325034599	-0.4139847295316569	0.9544763553142531	-1.839811930144886	-1.839811930144795	0.1246430987910406	0.2526150461212603	-0.5092931687528385	0.5926913862945372	-4.436589868537859e-07	-2.11401716044638e-07	2.431407189841817e-06	1.458625117215111e-07	-4.823523074691018e-07	8.830061896579743e-07	-4.10634846903594e-07
0.55	-0.5091724354023983	-0.113791674013012	0.7001089320271946	1.449574468573004	-0.4430082103398895	-0.1841354923977376	-0.2605889658050873	0.8863220688777868	0.886322068877831	-0.128063617980292	-0.1626274347846583	0.01054994806389637	-0.09011739889277991	-0.9912660526788931	-0.2980554541473912	-0.6470905572363326	2.875129415897537	-0.1605071018710157	0.7184692249060749	-0.04033489561701352	1.862846579422121	1.86284657942239	0.1207106757307914	-0.08283193808881691	0.1444151297599285	-0.1114112995122706	-0.2550179567513592	0.01265732970930464	-0.009497829843345563	-0.209499945907858	0.1277787490866801	0.05673471986568885	0.2258634750060714	6.433113674342314	-27.80917441941224	6.431101311292213	-12.7257637129786	-541.7227012949443	-55.2543572321015	-21.49389878468132	1.688394928107205	0.9381660542360941	-0.07366798529461965	-3.03343232417105	0.7577134866653495	-0.4020425765189578	0.8533054954531386	-1.981941986803318	-1.981941986816971	-0.004965902001452172	0.270249389309779	-0.5445280603429364	0.5376775686761676	-4.318253701758183e-07	-1.479771251316586e-07	2.43197649710943e-06	1.678534062866397e-07	-4.551432715261397e-07	9.159244980412686e-07	-3.977161914505754e-07
0.5600000000000001	-0.518999705567882	-0.1167252841301883	0.6936356930864624	1.478171054707424	-0.4445747626679358	-0.1769729711756884	-0.2609505286558285	0.9048492166416149	0.9048492166416253	-0.1268548653043601	-0.1634423107793433	0.01196664076547744	-0.0912040024554218	-0.9740503385165327	-0.2886590967450635	-0.6474204803099958	2.843824443135107	-0.1528000398406013	0.7139442814798966	-0.03210594204697586	1.842352810048785	1.842352810048966	0.1210261831316145	-0.08013625772724402	0.1388821287925897	-0.1059218560235619	-0.2616969783128834	0.01244472138771719	-0.009538692292028245	-0.2117438268244897	0.1292779717068873	0.05713758418794892	0.2306354311523606	6.631896071561861	-27.99020417188452	6.427135639411664	-12.7498844719666	-546.1531736165382	-54.68968230774142	-20.63051377932315	1.746766654573044	0.9402703886360477	0.00752132810056072	-3.215463032726342	0.7962128151388509	-0.5255152457603849	0.8005553351450683	-2.1153598567452	-2.115359856745211	0.1085958391563363	0.265087273106054	-0.5585339693640022	0.575720604666932	-4.16789971400497e-07	-7.570885836536297e-08	2.43506887100727e-06	1.90848304484601e-07	-4.254315171296812e-07	9.397353921716829e-07	-3.816650166308246e-07
0.5700000000000001	-0.52865103779614	-0.1195647881436037	0.687163223852172	1.506444136916766	-0.4460641021900456	-0.1698582755683516	-0.2612336211815123	0.9231646696580481	0.9231646696578836	-0.1256432407736927	-0.164229739681768	0.01332687255012053	-0.09223598700736782	-0.9560917744786762	-0.279241235348486	-0.6469363021928582	2.810443162183899	-0.1450700588081726	0.7088974953326125	-0.02465902854913272	1.820518008802087	1.82051800880214	0.1212882301632614	-0.0773479928461398	0.133130677127928	-0.1004895221843537	-0.2680303456140676	0.01185605677731704	-0.009525553814242997	-0.2140899936093421	0.1308764605336259	0.05745855104643949	0.2350863821962991	6.873787363456561	-28.14426911533135	6.420074836118066	-12.74138532648646	-550.3533191526002	-54.12828769844599	-19.77995354476504	1.838986343558387	0.9426553747815531	0.0893439816707229	-3.451859563573184	0.7607764708136117	-0.5091621871408691	0.6947895371858973	-2.250433404751965	-2.250433404771613	-0.01649889509044716	0.2864300868916788	-0.5884379866682098	0.5245402285176236	-3.985210296009197e-07	-1.594364611958046e-08	2.407970864092543e-06	2.079221010082154e-07	-3.945176883957997e-07	9.544911710242241e-07	-3.638385581443948e-07
0.58	-0.5381190673709406	-0.1223100912711317	0.6806996919846858	1.534372926529147	-0.4474762647571263	-0.1627970282001069	-0.2614466385361474	0.9412551960326843	0.9412551960325176	-0.124429297378548	-0.164989139137405	0.01462859237378384	-0.09321413812992739	-0.9373898078341875	-0.2698189195675739	-0.6456330069493368	2.774965923742492	-0.1373646488349903	0.703254633668161	-0.01809090784797157	1.797367481710624	1.797367481710546	0.1214899559845196	-0.07453036831384614	0.1271797365972519	-0.09515517014635205	-0.2743637129155057	0.01126739216681174	-0.009512415333078639	-0.2164361603943349	0.1324749493603695	0.05777951790477867	0.2395373332399897	7.109833362544225	-28.29786905493814	6.413579306954929	-12.75193466615424	-554.6697002776212	-53.61593728294882	-18.94388981191199	1.895447175898621	0.9411612655029987	0.1713447533773283	-3.634654530766597	0.791298603289771	-0.6447303491940561	0.624796775808346	-2.378505025698151	-2.378505025698526	0.0965315970786194	0.2709592033436511	-0.5984317425667811	0.5561242444255747	-3.760409620023117e-07	2.753851837855717e-08	2.341555151933544e-06	2.172846953512854e-07	-3.620383675015539e-07	9.574542416079076e-07	-3.437001023246159e-07
